<?xml version="1.0" standalone="no"?>
<!DOCTYPE svg PUBLIC "-//W3C//DTD SVG 20010904//EN"
 "http://www.w3.org/TR/2001/REC-SVG-20010904/DTD/svg10.dtd">
<svg version="1.0" xmlns="http://www.w3.org/2000/svg"
 width="428.000000pt" height="374.000000pt" viewBox="0 0 428.000000 374.000000"
 preserveAspectRatio="xMidYMid meet">
<metadata>
Created by potrace 1.10, written by Peter Selinger 2001-2011
</metadata>
<g transform="translate(0.000000,374.000000) scale(0.100000,-0.100000)"
fill="#000000" stroke="none">
<path d="M2045 3601 c-95 -5 -127 -10 -155 -27 -45 -26 -78 -85 -86 -154 -8
-73 -44 -152 -82 -179 -17 -12 -68 -31 -114 -42 -86 -21 -125 -38 -243 -104
-60 -34 -78 -40 -130 -39 -65 0 -100 14 -174 71 -58 44 -109 57 -163 42 -33
-8 -68 -36 -171 -137 -71 -70 -136 -140 -145 -157 -40 -78 -33 -136 25 -212
54 -71 76 -128 71 -182 -5 -46 -15 -69 -81 -191 -20 -36 -45 -101 -57 -145
-41 -152 -83 -194 -215 -215 -167 -27 -200 -81 -199 -330 1 -260 28 -305 208
-336 129 -23 167 -61 201 -201 9 -40 35 -105 56 -145 21 -40 49 -94 61 -120
l23 -48 89 0 88 0 -7 27 c-3 16 -30 82 -60 148 -29 66 -70 165 -90 220 -45
121 -59 149 -99 199 -46 57 -115 88 -198 90 -65 1 -68 2 -80 31 -8 19 -13 76
-13 155 l0 125 55 6 c185 20 279 114 365 367 18 53 53 145 78 203 87 202 81
290 -23 403 l-39 42 33 50 c19 27 66 80 105 118 l71 69 44 -41 c61 -56 120
-84 191 -90 76 -6 137 11 300 83 66 29 154 65 195 80 214 80 278 145 289 295
l6 74 45 13 c28 8 85 12 150 11 l105 -3 12 -75 c17 -104 37 -152 88 -208 55
-61 130 -101 265 -142 202 -61 285 -92 343 -127 72 -44 100 -40 189 22 35 25
82 55 104 66 l41 22 47 -32 c44 -31 156 -155 156 -174 0 -4 -20 -33 -45 -64
-98 -120 -96 -224 9 -448 19 -41 52 -119 71 -172 99 -264 167 -333 331 -333
50 0 53 -1 62 -32 19 -63 23 -111 16 -199 l-7 -89 -52 0 c-81 0 -150 -27 -210
-81 -64 -60 -102 -129 -154 -287 -23 -68 -52 -145 -66 -172 -14 -27 -34 -72
-45 -100 l-20 -50 94 0 94 0 7 30 c4 16 18 46 32 67 41 60 81 152 102 234 32
132 60 160 173 179 118 18 172 51 211 125 18 35 20 56 19 170 -4 287 -45 357
-223 386 -130 20 -165 60 -206 233 -17 73 -33 115 -58 151 -88 129 -87 212 6
344 50 71 62 137 35 190 -9 17 -73 88 -143 157 -186 187 -218 195 -364 98
-127 -84 -178 -84 -325 0 -62 35 -127 63 -191 80 -152 42 -184 76 -209 220
-31 175 -96 204 -419 187z"/>
<path d="M1970 2834 c-268 -35 -514 -159 -716 -359 -145 -144 -236 -288 -303
-479 -44 -126 -62 -239 -63 -396 0 -310 101 -575 318 -837 8 -9 42 -13 123
-13 l111 0 -78 78 c-419 419 -427 1089 -18 1519 162 172 359 278 597 324 345
66 704 -46 960 -301 298 -297 401 -713 273 -1100 -59 -177 -139 -306 -275
-442 l-77 -78 114 0 c128 0 117 -5 198 100 118 153 197 334 232 528 22 128 20
324 -6 450 -111 546 -555 952 -1107 1012 -115 12 -147 12 -283 -6z"/>
<path d="M2425 2387 c-21 -12 -53 -42 -70 -65 -30 -43 -30 -44 -30 -178 l0
-135 58 -61 58 -61 37 36 c35 34 127 87 151 87 6 0 31 19 54 43 79 79 89 200
23 281 l-23 30 -23 -77 c-12 -42 -32 -85 -44 -96 -35 -33 -76 -36 -115 -9 -49
33 -55 65 -27 154 27 85 22 91 -49 51z"/>
<path d="M1914 2350 c-49 -19 -134 -83 -134 -100 0 -4 28 -38 63 -74 l63 -65
74 72 c42 40 101 88 133 107 31 19 57 37 57 41 0 15 -61 32 -130 35 -58 3 -86
0 -126 -16z"/>
<path d="M1586 2151 c-102 -103 -108 -111 -103 -141 14 -65 -51 -128 -114
-110 -23 7 -33 2 -78 -44 l-51 -51 118 -118 117 -117 54 54 c47 47 52 56 42
75 -9 16 -8 29 3 55 18 42 42 56 97 56 29 0 50 6 64 20 l21 20 79 -80 79 -80
63 62 63 63 -81 81 -81 81 28 22 28 22 -120 120 -119 119 -109 -109z"/>
<path d="M2025 1720 l-260 -260 60 -60 60 -60 260 260 260 260 -60 60 -60 60
-260 -260z"/>
<path d="M2180 1555 l-64 -65 54 -55 c32 -32 54 -63 52 -73 -1 -11 76 -95 216
-235 215 -214 219 -217 261 -217 59 0 96 22 114 69 30 74 18 93 -212 324 -162
163 -211 207 -229 205 -16 -2 -37 12 -75 54 l-54 57 -63 -64z"/>
<path d="M1690 1388 c-19 -17 -67 -45 -105 -63 -92 -44 -118 -65 -144 -120
-35 -74 -20 -191 31 -233 13 -10 18 -2 38 60 12 39 33 82 46 95 39 39 118 26
144 -23 18 -32 15 -68 -9 -138 -12 -33 -19 -61 -16 -64 11 -12 89 35 121 72
45 52 52 87 49 224 l-2 113 -54 55 c-29 30 -56 54 -59 54 -3 -1 -21 -15 -40
-32z"/>
<path d="M716 593 c-20 -57 -20 -53 4 -53 11 0 20 -3 20 -7 0 -5 -17 -56 -37
-115 -32 -92 -41 -108 -59 -108 -16 0 -26 -11 -38 -40 -9 -22 -16 -45 -16 -50
0 -7 48 -10 131 -8 l131 3 14 40 c18 52 18 55 -6 55 -21 0 -24 10 -14 48 5 18
13 22 45 22 40 0 50 10 63 63 6 26 5 27 -29 27 -19 0 -35 2 -35 4 0 1 5 17 11
35 10 29 14 31 59 31 44 0 48 -2 43 -21 -5 -19 -2 -20 52 -17 l58 3 23 68 23
67 -214 0 -213 0 -16 -47z"/>
<path d="M1178 590 c-14 -42 -14 -50 -2 -50 19 0 19 0 -22 -122 -27 -81 -40
-108 -53 -108 -11 0 -22 -14 -30 -37 -8 -21 -16 -44 -18 -51 -4 -9 41 -12 203
-12 l209 0 22 65 21 65 -59 0 c-46 0 -59 -3 -59 -15 0 -11 -12 -15 -50 -15
-53 0 -56 3 -40 44 8 22 15 26 53 26 42 0 44 1 55 39 16 52 17 51 -28 51 -22
0 -40 2 -40 4 0 1 5 17 11 35 10 29 14 31 61 31 45 0 49 -2 43 -21 -6 -19 -3
-20 50 -17 l57 3 24 65 c13 36 24 66 24 68 0 1 -94 2 -208 2 l-208 0 -16 -50z"/>
<path d="M1658 591 c-15 -46 -15 -50 1 -53 15 -3 12 -17 -22 -115 -29 -83 -44
-113 -56 -113 -11 0 -22 -15 -30 -37 -8 -21 -16 -44 -18 -51 -4 -9 23 -12 114
-12 l118 0 18 49 c21 59 21 61 2 61 -18 0 -18 -1 -4 39 9 25 17 31 39 31 30 0
32 -3 56 -143 l6 -38 80 3 80 3 14 40 c17 50 17 55 0 55 -8 0 -18 19 -25 46
l-12 45 45 45 c67 66 74 135 18 172 -22 14 -57 18 -217 20 l-191 4 -16 -51z
m266 -47 c23 -9 20 -40 -6 -58 -27 -20 -99 -22 -93 -3 23 65 25 67 54 67 16 0
36 -3 45 -6z"/>
<path d="M2208 590 c-14 -42 -14 -50 -2 -50 19 0 19 -1 -23 -122 -28 -79 -42
-108 -55 -108 -10 0 -22 -16 -32 -47 -9 -26 -16 -48 -16 -50 0 -2 51 -3 114
-3 l114 0 16 47 c19 56 19 51 3 55 -12 2 -12 8 0 36 12 30 16 32 62 32 l49 0
-10 -34 c-6 -19 -19 -36 -28 -39 -10 -2 -24 -25 -33 -51 l-16 -46 115 0 c113
0 115 0 124 25 21 55 23 75 7 75 -21 0 53 221 78 230 10 3 26 27 35 53 l18 48
-116 -3 -115 -3 -15 -44 c-11 -32 -11 -45 -3 -50 8 -6 8 -16 0 -39 -10 -30
-14 -32 -60 -32 -27 0 -49 2 -49 4 0 19 25 66 35 66 10 0 45 76 45 97 0 2 -51
3 -113 3 l-113 0 -16 -50z"/>
<path d="M2770 615 c-21 -55 -23 -75 -7 -75 11 0 8 -20 -19 -97 -41 -119 -43
-165 -10 -198 50 -50 196 -42 266 13 45 37 66 73 105 185 25 71 37 93 52 95
13 2 23 13 27 30 3 15 8 37 12 50 6 21 4 22 -73 22 l-79 0 -16 -50 c-9 -27
-12 -50 -7 -52 11 -4 -43 -170 -66 -205 -18 -26 -62 -31 -72 -8 -7 21 57 215
72 215 6 0 18 23 27 50 l16 50 -109 0 c-108 0 -110 0 -119 -25z"/>
<path d="M3238 591 c-15 -46 -15 -50 1 -53 15 -3 12 -17 -22 -115 -29 -83 -44
-113 -56 -113 -11 0 -22 -15 -30 -37 -8 -21 -16 -44 -18 -51 -4 -9 23 -12 114
-12 l119 0 11 33 c24 70 25 77 9 77 -19 0 -19 -1 -5 39 9 25 17 31 39 31 30 0
32 -3 56 -142 l6 -38 78 0 78 0 16 40 c20 49 20 60 2 60 -8 0 -18 19 -25 46
l-12 45 45 45 c66 66 75 129 23 168 -26 19 -44 21 -221 24 l-192 4 -16 -51z
m266 -47 c23 -9 20 -40 -6 -58 -27 -20 -99 -22 -93 -3 23 65 25 67 54 67 16 0
36 -3 45 -6z"/>
</g>
</svg>
